# xmcd
#
# Track frame offsets:
#	150
#	38640
#	73482
#	123447
#	166037
#
# Disc length: 2537 seconds
#
# Revision: 1
# Processed by: cddbd v1.5.2PL0 Copyright (c) Steve Scherf et al.
# Submitted via: audiograbber 1.83.01
#
DISCID=3e09e705
DTITLE=Grateful Dead - 80-09-02 Community War Memorial, Rochester NY
DYEAR=1900
DGENRE=
TTITLE0=Space
TTITLE1=Iko Iko
TTITLE2=Morning Dew
TTITLE3=Sugar Magnolia
TTITLE4=Alabama Getaway
EXTD=
EXTT0=
EXTT1=
EXTT2=
EXTT3=
EXTT4=
PLAYORDER=
